<?xml version="1.0" encoding="utf-8"?>
<!-- Generator: Adobe Illustrator 22.1.0, SVG Export Plug-In . SVG Version: 6.00 Build 0)  -->
<svg version="1.1" id="playon-circle-mozaik" xmlns="http://www.w3.org/2000/svg" xmlns:xlink="http://www.w3.org/1999/xlink"
	 x="0px" y="0px" viewBox="0 0 555.2 529.8" enable-background="new 0 0 555.2 529.8" xml:space="preserve">
<g id="playon-title">
	<path fill="#32334F" d="M212.9,308.6c-1.3,0-2.4-0.9-2.7-2.1c-0.3-1.1-7.3-26.9-8.7-38.4c-1.3-11.1-5.2-27.8-5.3-27.9
		c-0.4-1.5,0.6-3,2.1-3.4c1.5-0.4,3,0.6,3.4,2.1l0,0c0.2,0.7,4,17.1,5.4,28.5c1.3,11.1,8.4,37.3,8.5,37.6c0.4,1.5-0.5,3.1-2,3.5
		c0,0,0,0,0,0C213.3,308.6,213.1,308.6,212.9,308.6z"/>
	<path fill="#32334F" d="M213.8,287.6c-4.4,0-9.3-3.2-10.8-10.7c-0.3-1.5,0.7-3,2.2-3.3c1.5-0.3,3,0.7,3.3,2.2
		c0.9,4.1,3.1,6.5,5.8,6.2c2.9-0.4,5.7-3.9,5.5-9.8c-1.1-22.8-5.2-27.1-7-27.9c-3.1-1.4-6.7,0-8.1,3.1c-0.4,1-0.6,2-0.5,3.1
		c0.3,1.5-0.7,3-2.2,3.3c-1.5,0.3-3-0.7-3.3-2.2l0,0c-1-6.4,3.4-12.4,9.9-13.4c2.3-0.3,4.6,0,6.6,0.9c4,1.8,6.7,6.9,8.4,15.6
		c1,5.7,1.6,11.4,1.8,17.2c0.4,9.4-4.9,15-10.4,15.7C214.6,287.6,214.2,287.6,213.8,287.6z"/>
	<path fill="#32334F" d="M240.5,301.7h-0.4c-4-0.1-9.1-2.5-11.1-13.1c-1.1-6.2-0.9-13.4-0.8-18.7c0.3-10.1,1.8-26.6,1.8-27.3
		c0.2-1.5,1.7-2.6,3.2-2.4c1.4,0.2,2.5,1.5,2.4,2.9c0,0.2-1.5,17-1.8,27c-0.2,8.3-0.7,25.7,6.5,25.9c0.9,0,1.8-0.3,2.5-1
		c3.4-3.2,4.8-12.9,4.9-18.2c0.1-1.6,1.5-2.7,3-2.6c1.4,0.1,2.6,1.3,2.6,2.7c0,1.7-0.5,16.3-6.7,22.2
		C245,300.8,242.8,301.7,240.5,301.7z"/>
	<path fill="#32334F" d="M259.1,297.9H259c-1.6-0.1-2.8-1.4-2.7-2.9c0-0.2,0.6-20.2,0.2-28.3c-0.2-4.5-0.3-9.3,0.8-13.4
		c1.4-5.4,4.4-8.6,9-9.8c2.1-0.6,4.4-0.2,6.2,1.1c3.2,2.5,4.8,8,5.1,17.5c0.3,11.1,0.6,30.5,0.6,30.7c0,1.6-1.2,2.8-2.8,2.9
		s-2.8-1.2-2.9-2.8l0,0c0-0.2-0.4-19.6-0.7-30.7c-0.2-10.1-2.1-12.5-2.9-13.1c-0.2-0.1-0.5-0.4-1.4-0.2c-5.2,1.3-6,7.9-5.5,17.4
		c0.4,8.3-0.2,28-0.2,28.8C261.9,296.7,260.6,297.9,259.1,297.9z"/>
	<path fill="#32334F" d="M259.8,275.5c-1.6,0-2.9-1.2-2.9-2.7c0-1.6,1.2-2.9,2.7-2.9c5.3-0.3,10.6-0.4,15.9-0.1
		c1.6,0.1,2.7,1.5,2.6,3c-0.1,1.6-1.5,2.7-3,2.6c-5-0.2-10.1-0.2-15.1,0.1L259.8,275.5z"/>
	<path fill="#32334F" d="M292.6,298.1c-3.1,0.1-6.2-1-8.5-3.2c-4.5-4.5-4.2-12.3-3.2-19.3c0.1-1.1,0.9-2.1,2-2.4
		c1.6-0.6,3.3,0.3,3.8,1.8c0.1,0.4,0.2,0.8,0.2,1.2c-0.4,3.2-1.6,11.6,1.6,14.8c1.1,1.1,2.6,1.5,4.9,1.4c1.1-0.1,3.5-0.2,4.9-6.1
		c1-4.6,1-10.8,1-17.3V268c-0.1-7.5,0.4-15,1.5-22.4c0.3-1.6,1.9-2.6,3.5-2.3c1.6,0.2,2.7,1.6,2.5,3.2c0,0,0,0.1,0,0.1
		c-1.1,7.1-1.6,14.3-1.5,21.4v0.9c0,6.9,0,13.4-1.1,18.5c-1.5,6.7-5,10.3-10.3,10.6C293.4,298,293,298.1,292.6,298.1z"/>
	<path fill="#32334F" d="M293.2,273c-2.4,0-4.7-0.7-6.8-1.9c-3.1-1.9-4.6-6.2-4.7-13.1c0-2.9,0.1-5.9,0.5-8.8
		c0.2-1.5,1.7-2.6,3.2-2.4c1.5,0.2,2.6,1.7,2.4,3.2l0,0c-0.4,2.7-0.5,5.3-0.5,8c0.1,5.3,1.2,7.8,2,8.4c2.1,1.3,4.6,1.4,6.8,0.3
		c1.9-1,2.9-3,2.9-5.8c0.1-1.6,1.5-2.7,3-2.6c1.4,0.1,2.6,1.3,2.6,2.7c-0.1,4.9-2.1,8.6-5.8,10.6C297.1,272.5,295.2,273,293.2,273z"
		/>
	<path fill="#FCEA31" d="M317.9,300.6h-0.6c-4.7-0.3-8.3-3.7-9.3-9s0.5-16,1.2-21.7l0.1-0.8l0,0l0.1-0.5c0.9-6.5,1.7-12.6,3.4-17.2
		c2.2-6,5.8-8.9,10.6-8.7c2.8,0.1,5.5,1.3,7.3,3.4c3.1,3.7,4.1,10,3,19.9c-0.1,1.3-0.3,2.5-0.4,3.7c-0.9,8.2-1.5,13.5-4,21.8
		C327.9,296.8,323.3,300.4,317.9,300.6z M315,269.8l-0.1,0.8c-0.6,4.6-2.1,15.4-1.3,19.9c0.5,2.7,1.9,4.3,4,4.4c3,0,5.6-2,6.4-5
		c2.3-7.8,2.9-12.7,3.8-20.8c0.1-1.2,0.3-2.4,0.4-3.7c1.1-10-0.3-14-1.7-15.6c-0.8-0.9-2-1.5-3.3-1.5c-1-0.1-3.2-0.2-5,5
		c-1.5,4.1-2.3,9.9-3.1,16L315,269.8z"/>
	<path fill="#FCEA31" d="M355.7,310.2c-0.7,0-1.3-0.1-2-0.3c-7.3-2-7.2-13-6.5-21.2c0.8-9.5,3.2-20.9,5-29.2c0.9-3.6,1.5-7.2,2-10.9
		c0.2-1.9-1-3.6-2.8-4.1c-1.7-0.4-3.3,0.9-4.3,3.5c-3.3,8-5.2,36.9-5.1,53.8c0.1,1.6-1.1,2.9-2.7,3s-2.9-1.1-3-2.7
		c0-0.1,0-0.2,0-0.3c0-13.3,1.4-45.9,5.6-56c2.6-6.2,7.2-7.6,10.7-6.9c4.5,1.1,7.5,5.2,7.3,9.8c0,1.9-0.8,5.6-2.1,11.9
		c-1.7,8.1-4.1,19.3-4.9,28.5c-0.9,10.5,0.7,14.8,2.4,15.2c0.4,0.1,0.8,0.1,1.1-0.1c0.8-0.6,2.4-2.6,3.8-9.6
		c1-5.4,1.7-11.9,2.3-18.3c0.3-2.8,0.5-5.5,0.8-8.1c1.2-10.5,3.6-20.9,6.9-31c0.5-1.5,2.1-2.3,3.6-1.8c1.5,0.5,2.3,2.1,1.8,3.6
		c0,0,0,0.1,0,0.1l0,0c-3.2,9.7-5.4,19.7-6.6,29.8c-0.3,2.5-0.5,5.2-0.8,8c-1.6,16.9-3.1,28.3-8.5,32
		C358.4,309.7,357.1,310.2,355.7,310.2z"/>
	<path fill="#3C6EB4" d="M317.2,228c-0.4,2.9-0.3,5.9,0.5,8.7c0.1,0.3,0.5,0.4,0.7,0.3c0.2-0.1,0.4-0.3,0.3-0.6
		c-0.7-2.7-0.9-5.4-0.5-8.1C318.4,227.6,317.3,227.3,317.2,228z"/>
	<path fill="#3C6EB4" d="M321.5,227.3l-0.8,7.7c-0.1,0.7,1.1,0.7,1.1,0l0.8-7.7C322.7,226.6,321.6,226.6,321.5,227.3z"/>
	<path fill="#3C6EB4" d="M324.5,226.7c0.2,2.5,0.1,5-0.2,7.5c-0.1,0.7,1.1,0.7,1.1,0c0.3-2.5,0.3-5,0.2-7.5
		C325.6,225.9,324.4,225.9,324.5,226.7z"/>
	<path fill="#3C6EB4" d="M327.4,226.5c-0.2,2.9-0.3,5.8-0.1,8.7c0,0.7,1.2,0.7,1.1,0c-0.1-2.9-0.1-5.8,0.1-8.7
		C328.5,225.8,327.4,225.8,327.4,226.5z"/>
	<path fill="#3C6EB4" d="M316.1,229.4c3.4,2.3,6.9,4.3,11,5c0.7,0.1,1-1,0.3-1.1c-4-0.7-7.4-2.6-10.7-4.9
		C316,228.1,315.5,229.1,316.1,229.4L316.1,229.4z"/>
	<path fill="#3C6EB4" d="M335.3,225.8c-0.5,2.2-1.3,5.1,0.7,6.8c0.5,0.5,1.4-0.3,0.8-0.8c-1.6-1.4-0.8-3.9-0.4-5.7
		c0-0.3-0.2-0.6-0.5-0.6C335.6,225.4,335.4,225.6,335.3,225.8L335.3,225.8z"/>
	<path fill="#3C6EB4" d="M338,224.2c-0.4,2.3-0.5,4.7-0.2,7c0.1,0.7,1.2,0.7,1.1,0c-0.3-2.2-0.2-4.5,0.2-6.7
		C339.2,223.8,338.1,223.5,338,224.2L338,224.2z"/>
	<path fill="#3C6EB4" d="M340.8,223.5l-1,8.6c-0.1,0.7,1,0.7,1.1,0l1-8.6C342,222.8,340.9,222.8,340.8,223.5z"/>
	<path fill="#3C6EB4" d="M344.1,222.3c-0.9,2.6-1.6,5.3-2.1,8c-0.1,0.7,1,1,1.1,0.3c0.5-2.7,1.3-5.4,2.1-8
		C345.4,221.9,344.3,221.6,344.1,222.3z"/>
	<path fill="#3C6EB4" d="M332.7,227.2c4.1,2.2,9.3,1.7,13.8,1.4c0.7,0,0.7-1.2,0-1.1c-4.3,0.3-9.3,0.8-13.2-1.3
		C332.6,225.9,332,226.9,332.7,227.2L332.7,227.2z"/>
	<path fill="#3C6EB4" d="M349.9,221.1c0.6,2.4,1,4.8,1.3,7.2c0.1,0.7,1.2,0.7,1.1,0c-0.3-2.5-0.7-5.1-1.3-7.5
		C350.8,220.1,349.8,220.4,349.9,221.1L349.9,221.1z"/>
	<path fill="#3C6EB4" d="M353.5,220.3c0,2,0.2,4,0.6,6c0.1,0.7,1.2,0.4,1.1-0.3c-0.3-1.9-0.5-3.8-0.5-5.7
		C354.7,219.6,353.5,219.6,353.5,220.3L353.5,220.3z"/>
	<path fill="#3C6EB4" d="M356.1,219.9c0.1,2.7,0.6,5.5,1.7,8c0.3,0.7,1.4,0.4,1.1-0.3c-1-2.4-1.6-5-1.6-7.7
		C357.2,219.2,356.1,219.2,356.1,219.9L356.1,219.9z"/>
	<path fill="#3C6EB4" d="M214.8,221.9c-0.6,2.6-1,5.2-1.4,7.8c-0.1,0.7,1,0.7,1.1,0c0.3-2.5,0.8-5,1.3-7.5
		C216,221.4,215,221.2,214.8,221.9z"/>
	<path fill="#3C6EB4" d="M213.6,222.9c0.7-0.4,3.3-1.6,3.6-0.3c0.3,1.1-2.1,2-3,2.1c-0.7,0.1-0.7,1.2,0,1.1c1.6-0.1,4.7-1.4,4.2-3.5
		c-0.6-2.4-4-1.1-5.4-0.4c-0.3,0.2-0.4,0.5-0.2,0.8S213.3,223.1,213.6,222.9L213.6,222.9z"/>
	<path fill="#3C6EB4" d="M220.7,224.5l-0.9,2.8c-0.4,0.9-0.7,1.9-0.9,2.9c-0.2,1.3,1.9,1.6,2.8,1.7c0.7,0.1,1-0.9,0.3-1.1
		c-0.5,0-1.1-0.2-1.6-0.4c-0.5-0.4,0-1.3,0.1-1.8l1.2-3.8C222,224.1,220.9,223.8,220.7,224.5L220.7,224.5z"/>
	<path fill="#3C6EB4" d="M226.6,231.7c1-1.8,1.9-3.7,2.6-5.6l-1.1-0.1c0.1,2.6,0.3,5.1,0.8,7.7c0.1,0.7,1.2,0.4,1.1-0.3
		c-0.4-2.4-0.7-4.9-0.7-7.4c0-0.3-0.3-0.6-0.6-0.5c-0.2,0-0.4,0.2-0.5,0.4c-0.7,1.9-1.5,3.7-2.5,5.4c-0.2,0.3-0.1,0.6,0.2,0.8
		S226.4,231.9,226.6,231.7L226.6,231.7z"/>
	<path fill="#3C6EB4" d="M235,228.5c1.1,0.2,2.1,0.4,3.2,0.6l-0.3-0.8c-0.8,1.1-1.7,2.1-2.7,3c-0.8,0.9-1.6,1.9-2.3,2.9
		c-0.2,0.3-0.1,0.6,0.2,0.8c0.1,0,0.2,0.1,0.3,0.1l4.5-0.4c0.7-0.1,0.7-1.2,0-1.1l-4.5,0.4l0.5,0.9c0.8-1.1,1.7-2.2,2.6-3.2
		c0.9-0.8,1.7-1.7,2.3-2.7c0.2-0.3,0.1-0.6-0.2-0.8c0,0-0.1,0-0.1-0.1c-1.1-0.2-2.1-0.4-3.2-0.6C234.6,227.3,234.3,228.4,235,228.5
		L235,228.5z"/>
	<path fill="#3C6EB4" d="M242.8,234.3l1.9-5.7l-1,0.1c0.7,1.2,0.7,2.7,1.1,4.1c0.4,1.2,0.9,2.4,1.5,3.5c0.4,0.6,1.3,0.1,1-0.6
		c-0.7-1.3-1.2-2.6-1.6-4c-0.2-1.2-0.5-2.4-1-3.5c-0.2-0.3-0.6-0.3-0.8-0.1c-0.1,0.1-0.1,0.1-0.2,0.2l-1.9,5.7
		C241.5,234.7,242.6,235,242.8,234.3L242.8,234.3z"/>
	<path fill="#3C6EB4" d="M257.6,228.8l-0.5,6.4l1.1-0.1l0-0.4c-0.1-0.7-1.2-0.4-1.1,0.3l0,0.4c0.1,0.7,1.1,0.4,1.1-0.1l0.5-6.4
		C258.8,228.1,257.6,228.1,257.6,228.8L257.6,228.8z"/>
	<path fill="#3C6EB4" d="M260.9,229c-1.3,1-2.6,2.1-3.8,3.2c-0.3,0.2-0.4,0.5-0.2,0.8s0.5,0.4,0.8,0.2c1.4-0.4,2.1,1.3,2.9,2.1
		c0.6,0.6,1.3,0.9,2.1,1c0.7,0,0.7-1.1,0-1.1c-1.4-0.1-2-1.6-2.9-2.4c-0.7-0.6-1.6-0.8-2.5-0.6l0.5,0.9c1.2-1.1,2.5-2.2,3.8-3.2
		C262.2,229.4,261.4,228.6,260.9,229L260.9,229z"/>
	<path fill="#3C6EB4" d="M266.1,229.8l-0.1,6.9c0,0.3,0.3,0.5,0.6,0.5c0.3,0,0.5-0.2,0.5-0.5l0.1-6.9
		C267.2,229.1,266.1,229.1,266.1,229.8z"/>
	<path fill="#3C6EB4" d="M266.2,230.6c0.4-0.3,0.9-0.6,1.5-0.8c0.3-0.1,0.6-0.1,0.9-0.1c0.6-0.1,0.8,0.1,0.8,0.7
		c0.2,0.8-0.2,0.9-0.9,1.4c-0.5,0.3-1,0.6-1.5,0.8c-0.3,0.1-0.5,0.4-0.4,0.7c0.1,0.3,0.4,0.5,0.7,0.4l0,0c1.2-0.2,2.3,1.4,3.2,2
		c0.8,0.6,1.7,0.9,2.6,0.9c0.3,0,0.5-0.3,0.5-0.6c0-0.3-0.2-0.5-0.5-0.5c-2.5,0-3.6-3.3-6.1-2.8l0.3,1.1c1.3-0.5,4.3-2,3.6-3.9
		c-0.8-2.1-3.9-1.2-5.2-0.2C265,230.1,265.6,231.1,266.2,230.6L266.2,230.6z"/>
	<path fill="#3C6EB4" d="M279.8,229c-0.8,0.1-2.4,0-3,0.6c-0.3,0.4-0.4,0.9-0.3,1.4c0,0.9,0,1.8,0,2.6s0.1,1.6,0.1,2.4
		c0,0.5,0,1.1,0.3,1.6c0.3,0.4,0.6,0.3,1,0.3l2.4-0.1c0.7,0,0.7-1.2,0-1.1c-0.9,0.1-1.9,0.1-2.8,0.1l0.4,0.4
		c-0.2-0.7-0.3-1.5-0.2-2.3c0-0.8-0.1-1.6-0.1-2.4c0-0.5-0.2-1.7,0.1-2.1s1.7-0.3,2.1-0.4C280.5,230.1,280.5,228.9,279.8,229
		L279.8,229z"/>
	<path fill="#3C6EB4" d="M278.2,233.4l-1.3,0.1c-0.3,0-0.6,0.3-0.6,0.6c0,0.3,0.3,0.6,0.6,0.6l1.3-0.1c0.3,0,0.6-0.2,0.6-0.5
		s-0.2-0.6-0.5-0.6C278.3,233.3,278.2,233.3,278.2,233.4z"/>
	<path fill="#3C6EB4" d="M285.4,237.1c0.3-2.3,0.9-4.6,1.6-6.8l-0.9,0.3c0.4,0.5,0.6,1.1,0.7,1.7l0.5,1.7l1,3.3
		c0.2,0.7,1.3,0.4,1.1-0.3l-1.3-4.2c-0.3-1-0.5-2.4-1.2-3.1c-0.2-0.2-0.6-0.2-0.8,0c-0.1,0.1-0.1,0.1-0.1,0.2
		c-0.7,2.2-1.3,4.5-1.6,6.8C284.2,237.5,285.3,237.8,285.4,237.1L285.4,237.1z"/>
	<path fill="#3C6EB4" d="M293.9,230.8c-0.2,1.8-0.1,3.7,0.3,5.5c0.1,0.7,1.2,0.4,1.1-0.3c-0.4-1.7-0.4-3.5-0.3-5.2
		C295.1,230.1,294,230.1,293.9,230.8z"/>
	<path fill="#3C6EB4" d="M291.9,230.8c2.1,0.5,4.2,0.5,6.3,0c0.3-0.1,0.4-0.5,0.3-0.7c-0.1-0.2-0.3-0.4-0.6-0.3
		c-1.9,0.4-3.8,0.4-5.7,0C291.5,229.6,291.2,230.7,291.9,230.8z"/>
	<path fill="#3C6EB4" d="M301,229.3c-0.5,2.2-0.6,4.4-0.1,6.6c0.1,0.7,1.2,0.4,1.1-0.3c-0.4-2-0.4-4,0.1-6
		C302.3,228.8,301.2,228.5,301,229.3L301,229.3z"/>
	<path fill="#3C6EB4" d="M307.7,228.7c-1.1-0.1-2.1-0.3-2.3,1c-0.2,2-0.1,3.9,0.2,5.9c0.1,0.7,1.2,0.7,1.1,0
		c-0.2-1.2-0.2-2.5-0.3-3.8c-0.1-0.6-0.1-1.2,0-1.8c0.1-0.4-0.1-0.2,0.3-0.3c0.3,0,0.6,0,0.9,0.1
		C308.4,229.9,308.4,228.8,307.7,228.7L307.7,228.7z"/>
	<path fill="#3C6EB4" d="M306.3,232.5l2,0.3c0.3,0,0.5-0.3,0.5-0.6c0-0.3-0.2-0.5-0.5-0.5l-2-0.3c-0.3,0-0.6,0.3-0.6,0.6
		C305.8,232.3,306,232.5,306.3,232.5z"/>
</g>
<image overflow="visible" width="2203" height="2099" xlink:href="../../../../Users/Edo/Downloads/Compressed/PLAYON13-20181021T175432Z-001/PLAYON13/circle.png"  transform="matrix(0.24 0 0 0.24 6.8895 17.7134)">
</image>
</svg>
